<?xml version="1.0" standalone="no"?>
<!DOCTYPE svg PUBLIC "-//W3C//DTD SVG 20010904//EN"
 "http://www.w3.org/TR/2001/REC-SVG-20010904/DTD/svg10.dtd">
<svg version="1.0" xmlns="http://www.w3.org/2000/svg"
 width="512.000000pt" height="512.000000pt" viewBox="0 0 512.000000 512.000000"
 preserveAspectRatio="xMidYMid meet">
<metadata>
Created by potrace 1.11, written by Peter Selinger 2001-2013
</metadata>
<g transform="translate(0.000000,512.000000) scale(0.100000,-0.100000)"
fill="#000000" stroke="none">
<path d="M393 5106 c-183 -45 -330 -190 -377 -373 -15 -56 -16 -269 -14 -2195
l3 -2133 22 -60 c67 -175 220 -306 393 -335 46 -8 684 -10 2180 -8 l2115 3 68
27 c86 35 141 73 205 143 60 66 106 156 122 240 8 44 10 633 8 2180 l-3 2120
-23 59 c-64 169 -213 300 -380 335 -82 17 -4248 14 -4319 -3z m1583 -1141
c113 -20 190 -45 290 -96 70 -36 234 -145 234 -156 0 -3 -46 -58 -101 -124
-98 -115 -102 -119 -123 -104 -181 131 -295 174 -484 182 -148 7 -226 -9 -352
-70 -142 -69 -270 -213 -337 -378 -70 -174 -98 -356 -98 -654 0 -336 33 -521
126 -714 44 -91 63 -116 142 -196 101 -101 182 -149 307 -182 89 -23 281 -23
375 1 83 20 212 83 317 154 l76 50 86 -109 c48 -60 89 -116 92 -123 13 -33
-205 -181 -350 -237 -242 -94 -569 -99 -809 -12 -326 117 -552 359 -673 718
-66 199 -94 387 -94 640 0 333 51 579 169 812 169 335 428 535 776 598 99 18
324 18 431 0z m1422 -1242 l2 -1213 564 0 565 0 -5 -32 c-3 -18 -13 -91 -22
-163 l-17 -130 -732 -3 -733 -2 0 1380 0 1380 188 -2 187 -3 3 -1212z"/>
</g>
</svg>
